<svg width="12" height="12" viewBox="0 0 12 12" fill="none" xmlns="http://www.w3.org/2000/svg">
<circle cx="6" cy="6" r="5" fill="#E9FFF5" stroke="white"/>
<path fill-rule="evenodd" clip-rule="evenodd" d="M6.23576 4.34993C6.62629 3.9594 7.25945 3.9594 7.64998 4.34993C8.0405 4.74045 8.0405 5.37362 7.64998 5.76414L5.29296 8.12117C5.16278 8.25134 4.95173 8.25134 4.82155 8.12117L3.87874 7.17836C3.74857 7.04818 3.74857 6.83713 3.87874 6.70695L6.23576 4.34993ZM7.17857 4.82133C7.0484 4.69116 6.83734 4.69116 6.70717 4.82133L4.58585 6.94265L5.05725 7.41406L7.17857 5.29274C7.30875 5.16256 7.30875 4.95151 7.17857 4.82133Z" fill="#85CDAC"/>
<path fill-rule="evenodd" clip-rule="evenodd" d="M3.40712 6.2357C3.53729 6.10553 3.74835 6.10553 3.87852 6.2357L5.76414 8.12132C5.89432 8.2515 5.89432 8.46255 5.76414 8.59272C5.63397 8.7229 5.42291 8.7229 5.29274 8.59272L3.40712 6.70711C3.27695 6.57693 3.27695 6.36588 3.40712 6.2357Z" fill="#85CDAC"/>
<path fill-rule="evenodd" clip-rule="evenodd" d="M4.82143 5.76427C4.9516 5.63409 5.16266 5.63409 5.29283 5.76427L6.23564 6.70708C6.36581 6.83725 6.36581 7.04831 6.23564 7.17848C6.10547 7.30865 5.89441 7.30865 5.76424 7.17848L4.82143 6.23567C4.69125 6.1055 4.69125 5.89444 4.82143 5.76427Z" fill="#85CDAC"/>
<path fill-rule="evenodd" clip-rule="evenodd" d="M8.35707 3.64296C8.48725 3.77313 8.48725 3.98419 8.35707 4.11436L7.64996 4.82147C7.51979 4.95165 7.30874 4.95165 7.17856 4.82147C7.04839 4.6913 7.04839 4.48024 7.17856 4.35007L7.88567 3.64296C8.01584 3.51279 8.2269 3.51279 8.35707 3.64296Z" fill="#85CDAC"/>
<path fill-rule="evenodd" clip-rule="evenodd" d="M4.82143 7.17836C4.9516 7.30854 4.9516 7.51959 4.82143 7.64976L4.11432 8.35687C3.98414 8.48705 3.77309 8.48705 3.64292 8.35687C3.51274 8.2267 3.51274 8.01564 3.64292 7.88547L4.35002 7.17836C4.4802 7.04819 4.69125 7.04819 4.82143 7.17836Z" fill="#85CDAC"/>
<path fill-rule="evenodd" clip-rule="evenodd" d="M4.5858 8.82826C4.45563 8.95844 4.24457 8.95844 4.1144 8.82826L3.17159 7.88545C3.04141 7.75528 3.04141 7.54422 3.17159 7.41405C3.30176 7.28387 3.51282 7.28387 3.64299 7.41405L4.5858 8.35686C4.71597 8.48703 4.71597 8.69809 4.5858 8.82826Z" fill="#85CDAC"/>
</svg>
